<svg xmlns="http://www.w3.org/2000/svg" viewBox="0 0 32 32" fill="none">
  <!-- fundo escuro arredondado -->
  <rect width="32" height="32" rx="7" fill="#0d0d14"/>
  <!-- chama principal (laranja) -->
  <path d="M16 28c-5.523 0-9-3.806-9-8.5 0-2.8 1.3-4.8 2.8-6.5C11.1 11.4 11.5 9.2 11 7c0 0 2.5 1.5 3.5 4.5.5-2.5 1-5 .5-7.5 0 0 5 3 5.5 8.5.3-1 .5-2.5.5-3.5 0 0 2.5 2.5 2.5 6.5C25 20.2 22.3 24 19 26.5c.5-1.5.5-3-.5-4.5 0 0-1.5 3.5-2.5 6z" fill="#ff6b2c"/>
  <!-- chama interna (violeta) -->
  <path d="M16 26c-2.761 0-4.5-2.015-4.5-4.5 0-1.5.7-2.8 1.5-3.8-.1 1.2.3 2.3 1 3 0-1.5.5-3 1.5-4 .2 1.2.7 2.3 1.5 3 .3-1 .3-2 0-3 0 0 2 1.5 2 4 0 2-1.25 3.8-3 5.3z" fill="#8257ff"/>
</svg>
